HIERARCHY
ROOT Root
{
	OFFSET 0.000000 0.000000 0.000000 
	CHANNELS 6 Xposition Yposition Zposition Xrotation Yrotation Zrotation
	JOINT LHIP
	{
		OFFSET 3.939827 0.000000 0.000000 
		CHANNELS 3 Xrotation  Yrotation Zrotation
		JOINT LKNEE
		{
			OFFSET 0.000000 -17.893505 0.000000 
			CHANNELS 3 Xrotation  Yrotation Zrotation
			JOINT LANK
			{
				OFFSET 0.000000 -15.102188 0.000000 
				CHANNELS 3 Xrotation  Yrotation Zrotation
				JOINT LTOES
				{
					OFFSET 0.000000 0.000000 5.934456 
					CHANNELS 3 Xrotation  Yrotation Zrotation
					End Site
					{
						OFFSET 0.000000 0.000000 2.922160 
					}
				}
			}
		}
	}
	JOINT RHIP
	{
		OFFSET -3.939827 0.000000 0.000000 
		CHANNELS 3 Xrotation  Yrotation Zrotation
		JOINT RKNEE
		{
			OFFSET 0.000000 -17.893505 0.000000 
			CHANNELS 3 Xrotation  Yrotation Zrotation
			JOINT RANK
			{
				OFFSET 0.000000 -15.102188 0.000000 
				CHANNELS 3 Xrotation  Yrotation Zrotation
				JOINT RTOES
				{
					OFFSET 0.000000 0.000000 5.934456 
					CHANNELS 3 Xrotation  Yrotation Zrotation
					End Site
					{
						OFFSET 0.000000 0.000000 2.922160 
					}
				}
			}
		}
	}
	JOINT LOWBACKTARGET
	{
		OFFSET 0.000000 0.000000 0.000000 
		CHANNELS 3 Xrotation  Yrotation Zrotation
		JOINT LOWERBACK
		{
			OFFSET 0.000000 6.803836 0.000000 
			CHANNELS 3 Xrotation  Yrotation Zrotation
			JOINT UPPERBACK
			{
				OFFSET 0.000000 6.818373 0.000000 
				CHANNELS 3 Xrotation  Yrotation Zrotation
				JOINT THORAX
				{
					OFFSET 0.000000 6.818374 0.000000 
					CHANNELS 3 Xrotation  Yrotation Zrotation
					JOINT LSHOROTATE
					{
						OFFSET 0.000000 0.000000 0.000000 
						CHANNELS 3 Xrotation  Yrotation Zrotation
						JOINT LSHO
						{
							OFFSET 6.795113 0.000000 0.000000 
							CHANNELS 3 Xrotation  Yrotation Zrotation
							JOINT LUPARMROLL
							{
								OFFSET 6.609026 0.000000 0.000000 
								CHANNELS 3 Xrotation  Yrotation Zrotation
								JOINT LELB
								{
									OFFSET 6.611931 0.000000 0.000000 
									CHANNELS 3 Xrotation  Yrotation Zrotation
									JOINT LWRIROLL
									{
										OFFSET 5.117413 0.000000 0.000000 
										CHANNELS 3 Xrotation  Yrotation Zrotation
										JOINT LWRI
										{
											OFFSET 5.117413 0.000000 0.000000 
											CHANNELS 3 Xrotation  Yrotation Zrotation
											End Site
											{
												OFFSET 3.151861 0.000000 0.000000 
											}
										}
									}
								}
							}
						}
					}
					JOINT RSHOROTATE
					{
						OFFSET 0.000000 0.000000 0.000000 
						CHANNELS 3 Xrotation  Yrotation Zrotation
						JOINT RSHO
						{
							OFFSET -6.795113 0.000000 0.000000 
							CHANNELS 3 Xrotation  Yrotation Zrotation
							JOINT RUPARMROLL
							{
								OFFSET -6.609026 0.000000 0.000000 
								CHANNELS 3 Xrotation  Yrotation Zrotation
								JOINT RELB
								{
									OFFSET -6.611931 0.000000 0.000000 
									CHANNELS 3 Xrotation  Yrotation Zrotation
									JOINT RWRIROLL
									{
										OFFSET -5.117413 0.000000 0.000000 
										CHANNELS 3 Xrotation  Yrotation Zrotation
										JOINT RWRI
										{
											OFFSET -5.117413 0.000000 0.000000 
											CHANNELS 3 Xrotation  Yrotation Zrotation
											End Site
											{
												OFFSET -3.151861 0.000000 0.000000 
											}
										}
									}
								}
							}
						}
					}
					JOINT NECKTARGET
					{
						OFFSET 0.000000 0.000000 0.000000 
						CHANNELS 3 Xrotation  Yrotation Zrotation
						JOINT HEAD
						{
							OFFSET 0.000000 4.175345 0.000000 
							CHANNELS 3 Xrotation  Yrotation Zrotation
							End Site
							{
								OFFSET 0.000000 4.134638 0.000000 
							}
						}
					}
				}
			}
		}
	}
}
MOTION
Frames: 7
Frame Time: 0.016667
-1.116737 29.631971 -3.787102 -38.367294 -16.949785 -13.615007 -12.060472 -1.780733 35.514706 81.814705 -3.094801 -0.433604 77.820969 -19.178419 -5.965133 -70.721588 0.014594 0.022575 7.164782 -0.217802 -13.312208 75.568413 -1.673488 -0.415376 4.311643 -18.998737 19.051714 -39.410328 -0.033067 -0.015008 -167.564301 -0.610156 -191.295532 159.472992 -4.215766 196.554886 6.412096 2.570662 0.897409 0.000000 2.451433 0.000000 0.000175 -16.196331 -15.580495 -15.854457 -21.806606 -78.976891 -32.755669 0.000000 0.000000 0.000000 -78.705185 0.000000 30.908443 0.000000 0.000000 -11.730570 -25.671276 -25.607689 -0.002627 18.380404 14.218839 -3.417651 49.144817 64.767563 -43.587681 0.000000 0.000000 -540.000000 71.743874 -540.000000 -15.524306 0.000000 0.000000 0.254335 -0.405465 32.062675 -21.639112 -3.200881 7.876728 -35.891727 20.605450 7.232039 
-1.037219 29.547731 -3.937893 -37.655190 -16.264498 -13.571057 -13.816090 -3.684093 35.807148 82.129463 -4.335713 -0.587967 81.088486 -19.510563 -4.750247 -68.035690 0.042293 0.030365 6.292798 -0.763103 -12.883649 75.885818 -1.802614 -0.446988 4.428174 -19.128403 19.032595 -39.444386 -0.014568 -0.014456 -167.415497 -0.794170 -191.436813 159.237671 -4.178484 196.746094 6.489193 2.490539 0.857189 0.000000 2.456401 0.000000 0.000000 -16.148767 -15.300556 -16.006966 -21.341883 -79.336143 -32.648331 0.000000 0.000000 0.000000 -81.088875 0.000000 32.444157 0.000000 0.000000 -11.982674 -25.850582 -25.955030 -0.000001 18.725395 13.627995 -4.203474 48.080750 65.884315 -43.155422 0.000000 0.000000 -540.000000 69.877678 -540.000000 -16.884184 0.000000 0.000000 0.163200 -0.262041 31.915333 -20.774668 -2.873427 7.395658 -35.844509 20.658167 7.113041 
-0.948978 29.486704 -4.105166 -36.851715 -15.648189 -13.221704 -15.523968 -5.066972 35.715961 82.305962 -6.050529 -0.809564 82.198784 -19.176741 -4.584948 -64.370750 0.028345 0.018115 5.321118 -1.353816 -12.833702 76.109352 -1.852047 -0.476189 4.464939 -19.280281 18.949459 -39.696762 -0.019117 -0.030134 -167.119385 -1.046448 -191.479645 159.066544 -4.021912 196.552017 6.666632 2.472499 0.911931 0.000000 2.436941 0.000000 0.000306 -15.943697 -15.184304 -16.163036 -21.157042 -79.554337 -32.471123 0.000000 0.000000 0.000000 -83.181892 0.000000 33.491154 0.000000 0.000000 -12.164198 -25.911230 -26.255480 -0.000193 18.783642 13.366908 -4.738856 47.344700 66.563530 -42.526699 0.000000 0.000000 -540.000000 68.462685 -540.000000 -17.223581 0.000000 0.000000 0.098903 -0.157818 32.208920 -20.050978 -2.709056 7.220208 -34.993446 20.660738 6.982933 
-0.860734 29.425678 -4.272440 -36.054508 -15.027245 -12.882361 -17.238211 -6.446521 35.583115 82.476418 -7.766010 -1.026634 83.305786 -18.839954 -4.426849 -60.705814 0.013643 0.006782 4.349665 -1.945291 -12.793775 76.333031 -1.901596 -0.505196 4.501510 -19.432220 18.866371 -39.949245 -0.023596 -0.045833 -166.823486 -1.298937 -191.521133 158.895905 -3.864785 196.358505 6.844099 2.454634 0.966730 0.000000 2.417480 0.000000 0.000175 -15.738660 -15.068200 -16.318270 -20.971676 -79.772026 -32.293957 0.000000 0.000000 0.000000 -85.274902 0.000000 34.538151 0.000000 0.000000 -12.346225 -25.971098 -26.556374 -0.000109 18.841927 13.105768 -5.254162 46.604496 67.223396 -41.897945 0.000000 0.000000 -540.000000 67.047707 -540.000000 -17.562956 0.000000 0.000000 0.034071 -0.053925 32.502567 -19.326889 -2.546912 7.042717 -34.142368 20.661503 6.852798 
-0.763638 29.377844 -4.461586 -35.056431 -14.559960 -12.448943 -19.035170 -7.313458 35.262096 82.564919 -8.711873 -1.145556 83.990318 -18.486633 -4.430552 -58.661743 0.006367 -0.003354 3.126019 -2.354348 -12.791347 76.514656 -2.035689 -0.525013 4.502306 -19.477743 18.795813 -39.867275 -0.018357 -0.044030 -166.584595 -1.586586 -191.443909 158.649750 -3.792668 196.185898 6.993153 2.467326 0.991099 0.000000 2.432910 0.000000 0.000112 -15.630249 -14.871134 -16.491409 -20.765076 -80.010635 -32.088680 0.000000 0.000000 0.000052 -87.241119 0.000052 35.425789 0.000000 0.000000 -12.374001 -26.097441 -26.507235 0.000238 18.809675 12.848422 -5.752636 46.086140 67.745438 -41.316525 0.000000 0.000000 -540.000000 65.947357 -540.000000 -17.656500 0.000000 0.000000 0.139445 -0.210470 32.995014 -18.626471 -2.425821 6.964673 -33.354946 20.651571 6.735211 
-0.660641 29.338800 -4.665308 -33.925739 -14.189599 -11.954832 -20.888422 -7.829568 34.821198 82.601196 -9.144455 -1.200870 84.394554 -18.124203 -4.540739 -57.698112 0.004240 -0.013109 1.733962 -2.641104 -12.814838 76.668282 -2.226109 -0.538386 4.479371 -19.452282 18.733597 -39.562454 -0.006613 -0.030602 -166.383011 -1.897114 -191.287186 158.352921 -3.776858 196.027176 7.123260 2.500315 0.995100 0.000000 2.471595 0.000000 0.000133 -15.586256 -14.620106 -16.676054 -20.544004 -80.263184 -31.864697 0.000000 0.000000 0.000436 -89.122795 0.000436 36.207176 0.000000 0.000000 -12.297938 -26.268257 -26.224119 0.000281 18.717081 12.593776 -6.243047 45.715454 68.178337 -40.766628 0.000000 0.000000 -540.000000 65.056808 -540.000000 -17.586126 0.000000 0.000000 0.361389 -0.538524 33.620785 -17.942081 -2.331155 6.952953 -32.610062 20.634293 6.626186 
-0.556931 29.305864 -4.876911 -32.714977 -13.803092 -11.432663 -22.800745 -8.224650 34.320801 82.606834 -9.268045 -1.217517 84.764069 -17.730677 -4.478703 -57.113510 0.001333 -0.020988 0.267467 -2.959148 -12.864535 76.787071 -2.421226 -0.558145 4.480384 -19.406164 18.680658 -39.243675 0.005700 -0.018230 -166.193756 -2.219760 -191.119354 158.076279 -3.753989 195.869095 7.247835 2.525040 1.015986 0.000000 2.504196 0.000000 0.000167 -15.526521 -14.352695 -16.866499 -20.344086 -80.546097 -31.651964 0.000000 0.000000 179.999359 -89.094437 179.999359 36.817677 0.000000 0.000000 -12.196325 -26.429558 -25.901438 -0.000148 18.664927 12.323307 -6.713519 45.315964 68.661919 -40.249111 0.000000 0.000000 -540.000000 64.187241 -540.000000 -17.480267 0.000000 0.000000 0.548662 -0.808337 34.165688 -17.275959 -2.228212 6.901649 -31.898958 20.601936 6.522549 
